# xmcd
#
# Track frame offsets:
#	150
#	18337
#	37375
#	51067
#	71927
#	93217
#	105335
#	124505
#	140737
#	157502
#	171655
#	187352
#
# Disc length: 2803 seconds
#
# Revision: 2
# Processed by: cddbd v1.5.2PL0 Copyright (c) Steve Scherf et al.
# Submitted via: EZCDAudioConverter 6.0.5.1
#
DISCID=a90af10c
DTITLE=Lee Roy Parnell - Hits and Highways Ahead
DYEAR=1999
DGENRE=Country
TTITLE0=She Won't Be Lonely Long
TTITLE1=Heart's Desire
TTITLE2=Love Without Mercy
TTITLE3=On The Road
TTITLE4=Long Way To Fall
TTITLE5=A Little Bit Of You
TTITLE6=I'm Holding My Own
TTITLE7=What Kind Of Fool Do You Think I Am
TTITLE8=When A Woman Loves A Man
TTITLE9=Tender Moment
TTITLE10=If The House Is Rockin'
TTITLE11=John The Revelator
EXTD=
EXTT0=
EXTT1=
EXTT2=
EXTT3=
EXTT4=
EXTT5=
EXTT6=
EXTT7=
EXTT8=
EXTT9=
EXTT10=
EXTT11=
PLAYORDER=
